# Blender3D v249 OBJ File: wall.blend
# www.blender3d.org
mtllib wall-corner-BL.mtl
v -1.000000 1.620000 0.788726
v 0.799689 1.620000 0.789807
v 0.799689 -1.620000 0.789807
v -1.000000 -1.620000 0.788727
v 0.899935 -1.620000 0.892433
v -1.000000 -1.620000 0.888727
v -1.000000 1.620000 0.888726
v 0.899934 1.620000 0.892433
v 0.899935 1.620000 0.892432
v -1.000000 1.620000 0.888726
v -1.000000 1.620000 0.988726
v 0.996473 1.620000 0.995058
v 0.899935 -1.620000 0.892433
v 0.996474 -1.620000 0.995058
v -1.000000 -1.620000 0.988727
v -1.000000 -1.620000 0.888727
v 0.799689 -1.620000 0.789807
v 0.899935 -1.620000 0.892433
v -1.000000 -1.620000 0.888727
v -1.000000 -1.620000 0.788727
v 0.799689 1.620000 0.789807
v -1.000000 1.620000 0.788726
v -1.000000 1.620000 0.888726
v 0.899934 1.620000 0.892433
v 0.899935 -1.620000 0.892433
v 0.899935 1.620000 0.892432
v 0.996473 1.620000 0.995058
v 0.996474 -1.620000 0.995058
v -1.000000 -1.620000 0.988727
v -1.000000 1.620000 0.988726
v -1.000000 1.620000 0.888726
v -1.000000 -1.620000 0.888727
v 0.998813 -1.621799 -0.998937
v 0.998813 1.621799 -0.998936
v 0.902708 1.621799 -1.000556
v 0.902708 -1.621799 -1.000556
v 0.902708 1.621799 -1.000555
v 0.804839 1.621799 -1.000363
v 0.902708 -1.621799 -1.000556
v 0.804839 -1.621799 -1.000363
v 0.998813 -1.621799 -0.998937
v 0.902708 -1.621799 -1.000556
v 0.998813 1.621799 -0.998936
v 0.902708 1.621799 -1.000556
v 0.902708 1.621799 -1.000555
v 0.902708 -1.621799 -1.000556
v 0.804839 -1.621799 -1.000363
v 0.804839 1.621799 -1.000363
vt 0.000000 0.000000
vt 1.000000 0.000000
vt 0.000000 1.000000
vt 1.000000 1.000000
vn -0.003171 -0.000000 0.999995
vn -0.003172 0.000000 0.999995
vn -1.000000 0.000000 0.000000
vn 0.000000 1.000000 0.000000
vn 0.000000 -1.000000 0.000000
vn 0.000600 -0.000000 -1.000000
vn 0.016851 -0.000000 -0.999858
vn 0.016843 0.000000 -0.999858
vn -0.001966 -0.000000 -0.999998
vn -0.001973 0.000000 -0.999998
vn 0.999999 0.000000 0.001174
vn 0.999999 0.000000 0.001173
vn -0.999999 -0.000000 -0.001465
vn -0.000958 0.999999 0.000901
vn -0.000016 1.000000 0.000951
vn -0.000958 -0.999999 0.000901
vn -0.000016 -1.000000 0.000950
vn 0.000972 -0.999999 -0.000949
vn -0.000002 -1.000000 -0.001005
vn 0.000972 0.999999 -0.000949
vn -0.000002 1.000000 -0.001005
vn 0.000958 0.999999 -0.000901
vn 0.000016 1.000000 -0.000950
vn 0.000958 -0.999999 -0.000901
vn 0.000016 -1.000000 -0.000951
vn -0.999996 -0.000000 -0.002877
vn -0.000972 0.999999 0.000949
vn 0.000002 1.000000 0.001005
vn 0.999999 0.000000 0.001465
vn -0.000972 -0.999999 0.000949
vn 0.000002 -1.000000 0.001005
usemtl wall_wall_blank.png
s off
f 28/1/1 27/2/1 29/3/1
f 27/2/2 30/4/2 29/3/2
f 29/1/3 30/2/3 31/4/3
f 29/1/3 31/4/3 32/3/3
f 21/1/4 22/2/4 24/3/4
f 22/2/4 23/4/4 24/3/4
f 17/1/5 18/2/5 19/4/5
f 17/1/5 19/4/5 20/3/5
f 13/1/5 14/2/5 15/4/5
f 13/1/5 15/4/5 16/3/5
f 9/1/4 10/2/4 12/3/4
f 10/2/4 11/4/4 12/3/4
f 1/1/3 4/2/3 6/4/3
f 1/1/3 6/4/3 7/3/3
f 1/1/6 2/2/6 3/4/6
f 1/1/6 3/4/6 4/3/6
f 36/1/7 35/2/7 34/4/7
f 36/1/8 34/4/8 33/3/8
f 47/1/9 48/2/9 45/4/9
f 47/1/10 45/4/10 46/3/10
f 27/1/11 28/4/11 34/3/11
f 28/4/12 33/3/12 34/3/12
f 25/1/13 26/2/13 36/3/13
f 26/2/13 35/4/13 36/3/13
f 26/1/14 27/2/14 34/4/14
f 26/1/15 34/4/15 35/3/15
f 28/1/16 25/4/16 33/3/16
f 25/4/17 36/3/17 33/3/17
f 24/1/18 21/2/18 37/3/18
f 21/2/19 38/3/19 37/3/19
f 17/1/20 18/2/20 39/4/20
f 17/1/21 39/4/21 40/3/21
f 13/1/22 14/2/22 41/4/22
f 13/1/23 41/4/23 42/3/23
f 12/1/24 9/2/24 43/3/24
f 9/2/25 44/3/25 43/3/25
f 3/1/26 2/2/26 48/4/26
f 3/1/26 48/4/26 47/3/26
f 2/1/27 8/2/27 45/4/27
f 2/1/28 45/4/28 48/3/28
f 8/1/29 5/4/29 45/3/29
f 5/4/29 46/3/29 45/3/29
f 5/1/30 3/4/30 46/3/30
f 3/4/31 47/3/31 46/3/31
