# Blender3D v249 OBJ File: 
# www.blender3d.org
mtllib wall.mtl
v -1.000000 1.620000 -0.100000
v 1.000000 1.620000 -0.100000
v 1.000000 -1.620000 -0.100000
v -1.000000 -1.620000 -0.100000
v 1.000000 -1.620000 0.000000
v -1.000000 -1.620000 0.000000
v -1.000000 1.620000 -0.000000
v 0.999999 1.620000 -0.000000
v 1.000000 1.620000 -0.000000
v -1.000000 1.620000 -0.000000
v -1.000000 1.620000 0.100000
v 0.999999 1.620000 0.100000
v 1.000000 -1.620000 0.000000
v 1.000000 -1.620000 0.100000
v -1.000000 -1.620000 0.100000
v -1.000000 -1.620000 0.000000
v 1.000000 -1.620000 -0.100000
v 1.000000 -1.620000 0.000000
v -1.000000 -1.620000 0.000000
v -1.000000 -1.620000 -0.100000
v 1.000000 1.620000 -0.100000
v -1.000000 1.620000 -0.100000
v -1.000000 1.620000 -0.000000
v 0.999999 1.620000 -0.000000
v 1.000000 -1.620000 0.000000
v 1.000000 1.620000 -0.000000
v 0.999999 1.620000 0.100000
v 1.000000 -1.620000 0.100000
v -1.000000 -1.620000 0.100000
v -1.000000 1.620000 0.100000
v -1.000000 1.620000 -0.000000
v -1.000000 -1.620000 0.000000
vt 0.000000 0.000000
vt 1.000000 0.000000
vt 0.000000 1.000000
vt 1.000000 1.000000
vn 0.000000 0.000000 1.000000
vn -1.000000 0.000000 0.000000
vn 1.000000 0.000000 0.000010
vn 1.000000 0.000000 0.000000
vn 0.000000 1.000000 0.000000
vn 0.000000 -1.000000 0.000000
vn 0.000000 -0.000000 -1.000000
usemtl wall
s off
f 28/1/1 27/2/1 29/3/1
f 27/2/1 30/4/1 29/3/1
f 29/1/2 30/2/2 31/4/2
f 29/1/2 31/4/2 32/3/2
f 25/1/3 26/2/3 27/4/3
f 25/1/4 27/4/4 28/3/4
usemtl wall
f 21/1/5 22/2/5 24/3/5
f 22/2/5 23/4/5 24/3/5
f 17/1/6 18/2/6 19/4/6
f 17/1/6 19/4/6 20/3/6
f 13/1/6 14/2/6 15/4/6
f 13/1/6 15/4/6 16/3/6
f 9/1/5 10/2/5 12/3/5
f 10/2/5 11/4/5 12/3/5
usemtl wall
f 3/1/3 2/2/3 8/4/3
f 3/1/4 8/4/4 5/3/4
f 1/1/2 4/2/2 6/4/2
f 1/1/2 6/4/2 7/3/2
f 1/1/7 2/2/7 3/4/7
f 1/1/7 3/4/7 4/3/7
