# Blender3D v249 OBJ File: 
# www.blender3d.org
mtllib door.mtl
v -0.600000 0.000000 0.000000
v -0.541221 -0.000000 -0.019098
v -0.504894 -0.000000 -0.069098
v -0.504894 -0.000000 -0.130902
v -0.541221 -0.000000 -0.180902
v -0.600000 -0.000000 -0.200000
v -0.581836 0.055902 -0.180902
v -0.570611 0.090451 -0.130902
v -0.570611 0.090451 -0.069098
v -0.581836 0.055902 -0.019098
v -0.647553 0.034549 -0.019098
v -0.676942 0.055902 -0.069098
v -0.676942 0.055902 -0.130902
v -0.647553 0.034549 -0.180902
v -0.647553 -0.034549 -0.180902
v -0.676942 -0.055902 -0.130902
v -0.676942 -0.055902 -0.069098
v -0.647553 -0.034549 -0.019098
v -0.581836 -0.055902 -0.019098
v -0.570611 -0.090451 -0.069098
v -0.570611 -0.090451 -0.130902
v -0.581836 -0.055902 -0.180902
v -0.600000 0.000000 0.200000
v -0.541221 0.000000 0.180902
v -0.504894 0.000000 0.130902
v -0.504894 0.000000 0.069098
v -0.541221 0.000000 0.019098
v -0.600000 0.000000 0.000000
v -0.581836 0.055902 0.019098
v -0.570611 0.090451 0.069098
v -0.570611 0.090451 0.130902
v -0.581836 0.055902 0.180902
v -0.647553 0.034549 0.180902
v -0.676942 0.055902 0.130902
v -0.676942 0.055902 0.069098
v -0.647553 0.034549 0.019098
v -0.647553 -0.034549 0.019098
v -0.676942 -0.055902 0.069098
v -0.676942 -0.055902 0.130902
v -0.647553 -0.034549 0.180902
v -0.581836 -0.055902 0.180902
v -0.570611 -0.090451 0.130902
v -0.570611 -0.090451 0.069098
v -0.581836 -0.055902 0.019098
v -0.800000 -1.620000 -0.050000
v 0.800000 -1.620000 -0.050000
v -0.800000 1.420000 -0.050000
v 0.800000 1.420000 -0.050000
v -0.800000 1.420000 0.050000
v 0.799999 1.420000 0.050000
v 0.800000 -1.620000 0.050000
v -0.800000 -1.620000 0.050000
vt 0.238249 0.261658
vt 0.285114 0.398836
vt 0.389909 0.261658
vt 0.115552 0.346439
vt 0.115552 0.176877
vt 0.285114 0.124479
vt 0.903304 0.576568
vt 0.928228 0.654168
vt 0.784420 0.842100
vt 0.793160 0.734068
vt 0.870504 0.947768
vt 0.914628 0.559768
vt 0.710022 0.774848
vt 0.556904 0.934292
vt 0.928904 0.850968
vt 0.687134 0.500190
vt 0.908104 0.899768
vt 0.861828 0.558168
vt 0.875428 0.944692
vt 0.546504 0.829492
vt 0.934628 0.558168
vt 0.569704 0.871092
vt 0.905028 0.643768
vt 0.330838 0.005366
vt 0.483641 0.261658
vt 0.298820 0.005366
vt 0.039722 0.124479
vt 0.039722 0.398836
vt 0.314079 0.483617
vn 0.301505 0.219055 -0.927960
vn 0.301505 0.219055 0.927960
vn -0.115167 0.354443 0.927959
vn -0.115167 0.354442 -0.927959
vn -0.372682 0.000000 -0.927959
vn -0.372682 0.000000 0.927959
vn -0.115167 -0.354442 0.927959
vn -0.115167 -0.354442 -0.927959
vn 0.301505 -0.219055 -0.927960
vn 0.301505 -0.219055 0.927960
vn -0.115167 0.354442 0.927959
vn -0.115167 -0.354443 -0.927959
vn 0.000000 0.000000 1.000000
vn 0.000000 -0.000000 -1.000000
vn -1.000000 0.000000 0.000000
vn 0.000000 -1.000000 0.000000
vn 1.000000 0.000000 0.000010
vn 1.000000 0.000000 0.000000
vn 0.000000 1.000000 0.000000
vn 0.697458 -0.506737 0.506724
vn 0.697458 -0.506730 0.506731
vn 0.809015 -0.587788 0.000000
vn 0.697458 -0.506730 -0.506731
vn 0.697458 -0.506737 -0.506724
vn -0.266407 -0.819908 -0.506732
vn -0.266404 -0.819907 -0.506736
vn -0.309017 -0.951057 0.000000
vn -0.266404 -0.819907 0.506736
vn -0.266407 -0.819908 0.506732
vn -0.862106 0.000000 0.506728
vn -0.862106 -0.000000 -0.506728
vn -0.266407 0.819908 -0.506732
vn -0.266404 0.819907 -0.506736
vn -0.309017 0.951057 -0.000000
vn -0.266404 0.819907 0.506736
vn -0.266407 0.819908 0.506732
vn 0.697458 0.506737 0.506724
vn 0.697458 0.506730 0.506731
vn 0.809015 0.587788 -0.000000
vn 0.697458 0.506730 -0.506731
vn 0.697458 0.506737 -0.506724
usemtl door_handle_door.png
s off
f 6/1/1 7/2/1 5/3/1
f 10/2/2 1/1/2 2/3/2
f 11/4/3 1/1/3 10/2/3
f 6/1/4 14/4/4 7/2/4
f 6/1/5 15/5/5 14/4/5
f 18/5/6 1/1/6 11/4/6
f 19/6/7 1/1/7 18/5/7
f 6/1/8 22/6/8 15/5/8
f 6/1/9 5/3/9 22/6/9
f 2/3/10 1/1/10 19/6/10
f 28/1/1 29/2/1 27/3/1
f 32/2/2 23/1/2 24/3/2
f 33/4/11 23/1/11 32/2/11
f 28/1/4 36/4/4 29/2/4
f 28/1/5 37/5/5 36/4/5
f 40/5/6 23/1/6 33/4/6
f 41/6/7 23/1/7 40/5/7
f 28/1/12 44/6/12 37/5/12
f 28/1/9 27/3/9 44/6/9
f 24/3/10 23/1/10 41/6/10
usemtl door_door.png
f 52/7/13 51/8/13 50/9/13
f 52/7/13 50/9/13 49/10/13
f 46/11/14 45/12/14 47/13/14
f 46/11/14 47/13/14 48/14/14
f 47/15/15 45/12/15 52/16/15
f 47/15/15 52/16/15 49/10/15
f 45/17/16 46/18/16 51/19/16
f 45/17/16 51/19/16 52/20/16
f 46/11/17 48/21/17 50/9/17
f 46/11/18 50/9/18 51/22/18
f 47/15/19 49/23/19 50/9/19
f 47/15/19 50/9/19 48/14/19
usemtl door_handle_door.png
f 42/24/20 25/25/20 41/6/20
f 25/25/21 24/3/21 41/6/21
f 43/26/22 26/25/22 25/25/22
f 43/26/22 25/25/22 42/24/22
f 44/6/23 27/3/23 26/25/23
f 44/6/24 26/25/24 43/26/24
f 37/5/25 44/6/25 43/26/25
f 37/5/26 43/26/26 38/27/26
f 38/27/27 43/26/27 42/24/27
f 38/27/27 42/24/27 39/27/27
f 39/27/28 42/24/28 40/5/28
f 42/24/29 41/6/29 40/5/29
f 34/28/30 39/27/30 40/5/30
f 34/28/30 40/5/30 33/4/30
f 35/28/15 38/27/15 39/27/15
f 35/28/15 39/27/15 34/28/15
f 36/4/31 37/5/31 38/27/31
f 36/4/31 38/27/31 35/28/31
f 29/2/32 36/4/32 30/29/32
f 36/4/33 35/28/33 30/29/33
f 30/29/34 35/28/34 34/28/34
f 30/29/34 34/28/34 31/29/34
f 31/29/35 34/28/35 33/4/35
f 31/29/36 33/4/36 32/2/36
f 25/25/37 31/29/37 32/2/37
f 25/25/38 32/2/38 24/3/38
f 26/25/39 30/29/39 31/29/39
f 26/25/39 31/29/39 25/25/39
f 27/3/40 29/2/40 26/25/40
f 29/2/41 30/29/41 26/25/41
f 20/26/20 3/25/20 19/6/20
f 3/25/21 2/3/21 19/6/21
f 21/26/22 4/25/22 3/25/22
f 21/26/22 3/25/22 20/26/22
f 22/6/23 5/3/23 4/25/23
f 22/6/24 4/25/24 21/26/24
f 15/5/25 22/6/25 21/26/25
f 15/5/26 21/26/26 16/27/26
f 16/27/27 21/26/27 20/26/27
f 16/27/27 20/26/27 17/27/27
f 17/27/28 20/26/28 18/5/28
f 20/26/29 19/6/29 18/5/29
f 12/28/30 17/27/30 18/5/30
f 12/28/30 18/5/30 11/4/30
f 13/28/15 16/27/15 17/27/15
f 13/28/15 17/27/15 12/28/15
f 14/4/31 15/5/31 16/27/31
f 14/4/31 16/27/31 13/28/31
f 7/2/32 14/4/32 8/29/32
f 14/4/33 13/28/33 8/29/33
f 8/29/34 13/28/34 12/28/34
f 8/29/34 12/28/34 9/29/34
f 9/29/35 12/28/35 11/4/35
f 9/29/36 11/4/36 10/2/36
f 3/25/37 9/29/37 10/2/37
f 3/25/38 10/2/38 2/3/38
f 4/25/39 8/29/39 9/29/39
f 4/25/39 9/29/39 3/25/39
f 5/3/40 7/2/40 4/25/40
f 7/2/41 8/29/41 4/25/41
